<?xml version="1.0" encoding="UTF-8"?>
<svg version="1.1" xmlns="http://www.w3.org/2000/svg" width="921" height="241">
<path d="M0 0 C1.9375 1.5 1.9375 1.5 3 3 C3 3.66 3 4.32 3 5 C4.60875 4.0409375 4.60875 4.0409375 6.25 3.0625 C12.08653941 -0.23438753 17.69643289 -0.92479361 24.30859375 0.49609375 C28.28946309 1.68431276 30.58554374 2.59294474 33.625 5.578125 C37.7182459 9.11849171 42.19683534 8.6317853 47.375 8.5625 C55.52269009 8.48727275 61.90653151 9.09619028 68.0234375 14.9296875 C72.76479949 21.75395996 74.94816862 27.61698541 74 36 C72.23743809 41.18976563 69.88916584 43.55541708 65 46 C57.0784307 48.10664684 52.00338954 45.70718751 45.0625 41.8125 C44.051875 41.214375 43.04125 40.61625 42 40 C42.66 41.98 43.32 43.96 44 46 C41.02257104 49.45765944 38.80910762 51.19613148 34.5 52.75 C29.75467234 54.67976658 28.09668023 57.2761762 25.875 61.78125 C23.28939024 68.3376176 22.60166053 76.28786503 25.25 82.9375 C27.53820157 87.01063602 27.53820157 87.01063602 31 90 C36.77762185 91.52574092 41.4483315 91.00805031 47 89 C47.07476562 88.39414063 47.14953125 87.78828125 47.2265625 87.1640625 C48.8471578 76.83673952 53.60364428 69.26446935 61.66015625 62.62890625 C69.04166807 57.49019101 77.21929379 57.07902009 86 58 C95.36382435 60.05100716 102.33237803 64.79090556 107.75 72.6875 C109.75316396 76.04133151 110.60749772 79.28953531 111.5625 83.0625 C113.16978829 88.26985271 114.93237941 90.11963583 119.6875 92.75 C120.74710938 93.28753906 121.80671875 93.82507813 122.8984375 94.37890625 C133.24325597 99.78583278 139.4506953 108.78601012 143.28515625 119.63671875 C145.86223039 128.32857095 147.16093708 136.55061971 147.08178711 145.59057617 C147.07872055 146.42088348 147.07565399 147.2511908 147.07249451 148.10665894 C147.0653734 149.89957344 147.05600147 151.69248015 147.04459953 153.48537254 C147.02709739 156.33305252 147.01687374 159.18067548 147.00868225 162.02839661 C146.98433417 170.12193186 146.94884743 178.21539046 146.90405273 186.30883789 C146.87709967 191.27062283 146.86016762 196.23236343 146.84918404 201.19420815 C146.84302115 203.07387236 146.83307583 204.95352847 146.81910515 206.83315086 C146.71889131 220.39592087 146.71889131 220.39592087 148.76344299 233.78364563 C149 236 149 236 147 239 C144.66162109 239.34057617 144.66162109 239.34057617 141.7734375 239.29296875 C140.7421875 239.28330078 139.7109375 239.27363281 138.6484375 239.26367188 C137.56820312 239.23853516 136.48796875 239.21339844 135.375 239.1875 C134.28703125 239.17396484 133.1990625 239.16042969 132.078125 239.14648438 C129.38492591 239.11104754 126.69270626 239.06164331 124 239 C123.32133261 236.36073791 122.91271385 234.42510196 123.46556091 231.73262024 C124.08132568 228.58417673 124.11975543 225.67404583 124.11352539 222.46557617 C124.11344986 221.16460495 124.11337433 219.86363373 124.11329651 218.52323914 C124.10819062 217.11314861 124.10297464 215.70305849 124.09765625 214.29296875 C124.09578979 212.84279937 124.09436696 211.39262935 124.09336853 209.94245911 C124.0895613 206.13667034 124.07974642 202.33092009 124.06866455 198.52514648 C124.05841177 194.63721233 124.05386264 190.74927192 124.04882812 186.86132812 C124.03812246 179.24086791 124.0210677 171.62043936 124 164 C119.46703439 162.05653365 114.93206496 160.11784513 110.39526367 158.18334961 C108.85565626 157.52609596 107.31658154 156.86759289 105.77807617 156.20776367 C92.48059725 149.41826987 92.48059725 149.41826987 78.5 147.6875 C75.8804896 148.75231753 75.8804896 148.75231753 75 151 C74.90259832 153.34782296 74.87202623 155.69849778 74.87060547 158.04833984 C74.86885315 158.77372452 74.86710083 159.49910919 74.86529541 160.24647522 C74.86088399 162.65132012 74.86381301 165.05609181 74.8671875 167.4609375 C74.86651411 169.1300152 74.86554379 170.7990928 74.86428833 172.46817017 C74.8628122 175.97032605 74.86496266 179.47245645 74.86962891 182.97460938 C74.87531733 187.46267419 74.87205228 191.95067909 74.86605644 196.43874168 C74.86244103 199.88740489 74.86359409 203.33605392 74.86618423 206.78471756 C74.86685125 208.43931714 74.86603296 210.09391801 74.86370468 211.74851608 C74.86116309 214.06333567 74.86504044 216.37805869 74.87060547 218.69287109 C74.87140106 220.01032318 74.87219666 221.32777527 74.87301636 222.68515015 C74.9757106 225.36593629 75.24129506 227.45958126 76 230 C76.17002546 232.69540361 76.08877822 235.29226438 76 238 C75 239 75 239 72.68334961 239.11352539 C71.68311768 239.10828857 70.68288574 239.10305176 69.65234375 239.09765625 C68.57275391 239.09443359 67.49316406 239.09121094 66.38085938 239.08789062 C65.24455078 239.07951172 64.10824219 239.07113281 62.9375 239.0625 C61.79732422 239.05798828 60.65714844 239.05347656 59.48242188 239.04882812 C56.65489649 239.03699747 53.8274736 239.0205141 51 239 C50.87444778 232.5968369 50.87444778 232.5968369 51.49560547 229.64404297 C52.06335069 226.66791481 52.12960714 223.91278939 52.1328125 220.8828125 C52.13522949 219.6544165 52.13764648 218.42602051 52.14013672 217.16040039 C52.13613032 215.81526343 52.13105435 214.4701293 52.125 213.125 C52.12067963 212.09703812 52.12067963 212.09703812 52.11627197 211.04830933 C52.09817858 207.32133755 52.07060764 203.59453911 52.03710938 199.86767578 C52.00816072 196.51959392 51.99570364 193.17193503 51.99414062 189.82373047 C51.9907395 185.42907389 51.9555088 181.03559635 51.90032959 176.64129639 C51.88357177 174.93518904 51.87678284 173.22895186 51.88043213 171.52276611 C52.06309727 159.25130409 52.06309727 159.25130409 46.60742188 148.55908203 C42.4341092 144.51127299 37.86304494 143.22822118 32.375 141.6875 C14.76346881 136.41628063 2.75357572 126.2248385 -6.3125 110.1875 C-14.53323212 92.32741385 -12.24767368 69.84532619 -11.625 50.75 C-11.5940625 49.54859375 -11.563125 48.3471875 -11.53125 47.109375 C-11.2529593 38.64933781 -10.52980966 30.81600709 -7 23 C-8.3921875 22.13375 -8.3921875 22.13375 -9.8125 21.25 C-13.35344205 18.75051149 -15.6456402 16.96334481 -16.43359375 12.59765625 C-16.44005436 8.40472135 -16.40218638 5.71499801 -14.3125 2 C-9.27204763 -2.35931016 -6.22815515 -2.42206033 0 0 Z " fill="#FEFEFF" transform="translate(16,2)"/>
<path d="M0 0 C2.74687087 2.74687087 4.6240371 5.3157152 6.625 8.625 C7.305625 7.92375 7.98625 7.2225 8.6875 6.5 C9.66309486 5.53803077 10.64257704 4.57999491 11.625 3.625 C12.13289063 3.12097656 12.64078125 2.61695312 13.1640625 2.09765625 C21.29591388 -5.47537122 30.70213875 -7.4826144 41.625 -7.375 C48.89796549 -6.79316276 54.54446027 -4.3116044 60.625 -0.375 C61.511875 0.181875 62.39875 0.73875 63.3125 1.3125 C72.93141987 10.93141987 75.0007882 23.23749767 75.0418396 36.34010315 C75.03647359 37.80095721 75.03032156 39.26180856 75.0234375 40.72265625 C75.02546265 42.24914183 75.02837775 43.77562646 75.03213501 45.30210876 C75.0365256 48.47648474 75.03022577 51.65060517 75.01611328 54.82495117 C74.99889081 58.89724441 75.00896448 62.96895006 75.02683067 67.04122257 C75.03764549 70.18186418 75.03423514 73.32236506 75.0264473 76.46301079 C75.02444568 77.96575427 75.02690325 79.4685105 75.03388596 80.97123909 C75.04147725 83.06068307 75.02993682 85.14915426 75.01318359 87.23852539 C75.01079681 88.4266835 75.00841003 89.61484161 75.00595093 90.83900452 C74.88023712 91.75838303 74.75452332 92.67776154 74.625 93.625 C71.16267506 95.93321663 69.70701684 95.89500989 65.625 95.875 C64.573125 95.88015625 63.52125 95.8853125 62.4375 95.890625 C59.625 95.625 59.625 95.625 56.625 93.625 C56.23973083 91.13598633 56.23973083 91.13598633 56.22436523 87.95703125 C56.20435707 86.17377441 56.20435707 86.17377441 56.1839447 84.35449219 C56.18377098 82.41558105 56.18377098 82.41558105 56.18359375 80.4375 C56.17181732 79.09666503 56.15845243 77.75584315 56.14356995 76.41503906 C56.10730086 72.87446114 56.08717196 69.33399888 56.07202148 65.79327393 C56.04726236 60.15501797 56.00700067 54.51701865 55.95012093 48.8789978 C55.93397925 46.92174342 55.93039042 44.96439827 55.92710876 43.00708008 C55.84021685 32.65117914 55.53498245 22.88520891 48.625 14.625 C42.90887893 10.3030548 36.58800339 9.91032223 29.625 10.625 C23.82465219 12.14370305 19.95527876 14.58053718 16.59765625 19.55078125 C14.1991413 24.66568662 13.37530503 29.64103931 13.35375977 35.24707031 C13.34357315 36.51818665 13.33338654 37.78930298 13.32289124 39.09893799 C13.32147975 40.10231075 13.32147975 40.10231075 13.32003975 41.12595367 C13.31634833 43.23623379 13.29955169 45.34605554 13.27928162 47.45623779 C13.22410281 53.45055647 13.19308869 59.44493812 13.16870117 65.43945312 C13.15284166 69.11756805 13.12265529 72.79534796 13.08393669 76.47328949 C13.07228816 77.87189944 13.06635635 79.27056915 13.06625557 80.6692276 C13.06606386 82.61970133 13.04630645 84.57014362 13.02563477 86.52050781 C13.02056412 87.62968567 13.01549347 88.73886353 13.01026917 89.88165283 C12.625 92.625 12.625 92.625 11.28941345 94.48162842 C8.65552225 96.29098435 6.26859476 96.02124051 3.125 96 C1.9803125 96.00773437 0.835625 96.01546875 -0.34375 96.0234375 C-3.375 95.625 -3.375 95.625 -5.04139709 94.48439026 C-6.96872571 91.79719152 -6.74672405 89.7629161 -6.74389648 86.47631836 C-6.75077988 85.20747299 -6.75766327 83.93862762 -6.76475525 82.6313324 C-6.76157728 81.95298277 -6.75839931 81.27463314 -6.75512505 80.57572746 C-6.7459991 78.44272022 -6.75625809 76.31058944 -6.77174377 74.17762756 C-6.81177898 68.11363106 -6.813061 62.04970241 -6.81079102 55.9855957 C-6.81073954 52.27312774 -6.8300988 48.56112686 -6.86012459 44.84878731 C-6.87084809 42.76263468 -6.85887551 40.6774147 -6.84629822 38.59129333 C-6.90911542 30.51088287 -7.2685488 22.39583645 -12.78684998 15.98472595 C-18.2084186 11.15278715 -23.56794556 10.1612882 -30.58984375 10.3125 C-36.23832062 10.9462702 -40.45373131 13.30644737 -44.25 17.5 C-47.72930551 22.61662575 -48.62353756 27.07903189 -48.63037109 33.20947266 C-48.64080948 35.14145004 -48.64080948 35.14145004 -48.65145874 37.11245728 C-48.6507777 37.79304829 -48.65009666 38.4736393 -48.64939499 39.17485428 C-48.64842397 41.31893657 -48.66143668 43.46252549 -48.67837524 45.60653687 C-48.72449069 51.69826548 -48.74926937 57.78993851 -48.75585938 63.88183594 C-48.76087307 67.61722129 -48.7851053 71.35208355 -48.82118607 75.08729172 C-48.83097854 76.50740799 -48.83331896 77.92759623 -48.82801437 79.34773636 C-48.82094681 81.33161396 -48.84031101 83.31553243 -48.86083984 85.29931641 C-48.8651149 86.99092392 -48.8651149 86.99092392 -48.86947632 88.71670532 C-49.48839845 92.27738507 -50.52793146 93.46169998 -53.375 95.625 C-56.28515625 96.0859375 -56.28515625 96.0859375 -59.4375 96 C-60.48035156 95.98710937 -61.52320313 95.97421875 -62.59765625 95.9609375 C-65.375 95.625 -65.375 95.625 -68.375 93.625 C-68.6769381 90.52633092 -68.78418841 87.62694523 -68.76318359 84.52539062 C-68.76844055 83.58221481 -68.77369751 82.639039 -68.77911377 81.6672821 C-68.79235631 78.53843805 -68.78356058 75.41009955 -68.7734375 72.28125 C-68.77545701 70.11413474 -68.77836741 67.94702015 -68.78213501 65.77990723 C-68.78656414 61.23357689 -68.78010833 56.68742313 -68.76611328 52.14111328 C-68.74902118 46.30304154 -68.75885921 40.46538351 -68.77683067 34.62732697 C-68.78765258 30.1510301 -68.78422949 25.67483189 -68.7764473 21.1985321 C-68.77444088 19.04546561 -68.77691996 16.89239026 -68.78388596 14.73933411 C-68.79147421 11.73418322 -68.77993305 8.72970959 -68.76318359 5.72460938 C-68.77229263 4.37957588 -68.77229263 4.37957588 -68.78158569 3.00737 C-68.75595093 0.5345459 -68.75595093 0.5345459 -68.375 -3.375 C-64.92824591 -5.67283606 -63.44171888 -5.67254883 -59.375 -5.6875 C-58.323125 -5.70425781 -57.27125 -5.72101563 -56.1875 -5.73828125 C-53.375 -5.375 -53.375 -5.375 -51.54296875 -4.0546875 C-49.85988441 -1.63419831 -49.69586907 0.7371784 -49.375 3.625 C-48.77365234 3.04492188 -48.77365234 3.04492188 -48.16015625 2.453125 C-35.0470997 -9.55974313 -14.41218476 -11.14158922 0 0 Z " fill="#FEFEFF" transform="translate(493.375,90.375)"/>
<path d="M0 0 C0.91136719 -0.02449219 1.82273437 -0.04898438 2.76171875 -0.07421875 C3.64214844 -0.07808594 4.52257812 -0.08195312 5.4296875 -0.0859375 C6.6360083 -0.09826416 6.6360083 -0.09826416 7.86669922 -0.11083984 C11.07901387 0.5802419 12.11314831 1.78740857 14.125 4.375 C15.26874284 6.87659867 16.24766832 9.28193438 17.1640625 11.86328125 C17.4421727 12.61709076 17.7202829 13.37090027 18.00682068 14.14755249 C18.61180002 15.79073681 19.21179758 17.43576188 19.80740356 19.08236694 C21.10307148 22.66331334 22.42317607 26.23509259 23.74214172 29.80751038 C24.44503287 31.71149139 25.14673984 33.61590994 25.84733582 35.52073669 C29.49044193 45.41228838 33.26100425 55.25376717 37.04541016 65.09194946 C38.18606665 68.05877189 39.32399187 71.02662673 40.4609375 73.99487305 C43.74629961 82.57183013 47.03551681 91.14720872 50.34318542 99.71559143 C51.67326791 103.16594419 52.99666022 106.61883491 54.31832886 110.07241821 C54.93323812 111.67463863 55.55111889 113.2757222 56.17214966 114.87557983 C57.02083351 117.06265001 57.85924904 119.25339299 58.6953125 121.4453125 C59.16727051 122.67008301 59.63922852 123.89485352 60.12548828 125.15673828 C61.06071865 128.16802474 61.60660235 130.26433389 61.125 133.375 C57.59263908 135.72990728 55.87779632 135.70243705 51.6875 135.75 C50.55441406 135.77835938 49.42132812 135.80671875 48.25390625 135.8359375 C45.125 135.375 45.125 135.375 41.125 131.375 C37.825 122.795 34.525 114.215 31.125 105.375 C10.665 105.045 -9.795 104.715 -30.875 104.375 C-31.865 107.675 -32.855 110.975 -33.875 114.375 C-35.00700709 117.54204712 -36.15978473 120.67894273 -37.375 123.8125 C-37.67019531 124.60076172 -37.96539063 125.38902344 -38.26953125 126.20117188 C-38.56214844 126.95849609 -38.85476563 127.71582031 -39.15625 128.49609375 C-39.41470703 129.1708374 -39.67316406 129.84558105 -39.93945312 130.54077148 C-41.00201749 132.62402985 -42.05805485 133.90462032 -43.875 135.375 C-46.90625 135.73828125 -46.90625 135.73828125 -50.375 135.6875 C-51.5196875 135.68363281 -52.664375 135.67976562 -53.84375 135.67578125 C-56.875 135.375 -56.875 135.375 -59.875 133.375 C-60.68738396 127.23193346 -58.7159255 122.48062963 -56.45703125 116.90625 C-56.09222656 115.97761642 -55.72742188 115.04898285 -55.3515625 114.09220886 C-54.14068375 111.01555638 -52.91387549 107.94550429 -51.6875 104.875 C-50.39275688 101.59483669 -49.10246415 98.31294488 -47.81242371 95.03092957 C-46.90765599 92.72964328 -46.00155288 90.42888161 -45.0941925 88.12861633 C-39.39524452 73.66552777 -33.89035323 59.1285164 -28.3710022 44.59619141 C-24.09490561 33.34216427 -19.80763635 22.09263102 -15.38671875 10.89453125 C-14.89604668 9.63669075 -14.89604668 9.63669075 -14.39546204 8.35343933 C-13.94000252 7.20939384 -13.94000252 7.20939384 -13.4753418 6.04223633 C-13.21311325 5.37831375 -12.9508847 4.71439117 -12.68070984 4.03034973 C-10.10471527 -1.26209144 -5.1210361 0.00718238 0 0 Z M0.125 21.375 C-8.3585626 43.32175543 -16.76373066 65.28738965 -24.875 87.375 C-8.375 87.375 8.125 87.375 25.125 87.375 C24.37325321 83.61626606 23.56234669 80.59707662 22.22314453 77.0690918 C21.8324881 76.03419113 21.44183167 74.99929047 21.03933716 73.93302917 C20.40498245 72.27041801 20.40498245 72.27041801 19.7578125 70.57421875 C19.32242157 69.4238765 18.88703064 68.27353424 18.43844604 67.08833313 C17.0459398 63.41166248 15.64806848 59.73705872 14.25 56.0625 C13.31604711 53.59974554 12.38244934 51.13685638 11.44921875 48.67382812 C9.73024616 44.13806961 8.00904948 39.60316791 6.28564453 35.0690918 C4.55320608 30.50890589 2.83334797 25.9442623 1.125 21.375 C0.795 21.375 0.465 21.375 0.125 21.375 Z " fill="#F9B8AC" transform="translate(802.875,50.625)"/>
<path d="M0 0 C9.96151564 10.40622616 10.06475775 22.47461945 10.05078125 36.03515625 C10.054673 37.60837415 10.05900865 39.181591 10.06376648 40.75480652 C10.07119588 44.03701198 10.07095915 47.31910976 10.06567383 50.60131836 C10.0598511 54.8092073 10.07689295 59.01666008 10.1000185 63.22447681 C10.11472953 66.46637041 10.11563172 69.7081579 10.11250877 72.95007896 C10.11302225 74.50224364 10.11826499 76.05441421 10.12832069 77.6065464 C10.14063163 79.77029847 10.13392919 81.93318605 10.12231445 84.09692383 C10.12294388 85.32743973 10.1235733 86.55795563 10.1242218 87.82575989 C9.75 90.828125 9.75 90.828125 8.4025116 92.72612 C5.88166746 94.40718708 3.73963129 94.18825393 0.75 94.140625 C-0.8278125 94.13482422 -0.8278125 94.13482422 -2.4375 94.12890625 C-5.25 93.828125 -5.25 93.828125 -8.25 91.828125 C-8.76171875 89.6640625 -8.76171875 89.6640625 -8.9375 87.203125 C-9.00324219 86.38585937 -9.06898438 85.56859375 -9.13671875 84.7265625 C-9.17410156 84.10007812 -9.21148437 83.47359375 -9.25 82.828125 C-9.91 83.55 -10.57 84.271875 -11.25 85.015625 C-19.31092256 92.89791216 -29.28359084 95.77586373 -40.5 96.140625 C-52.29854896 95.15741259 -62.3118986 91.95212914 -70.5546875 83.05859375 C-75.02546222 77.17653761 -76.9874659 70.70766614 -76.62890625 63.33984375 C-75.39617024 55.16820197 -71.91067293 48.7480776 -65.25 43.828125 C-49.77412637 34.02280049 -27.45059819 30.3342146 -9.25 30.828125 C-9.526146 22.41947922 -9.95413131 16.27741757 -16 10.015625 C-23.45262543 6.08229491 -31.44523866 5.93171686 -39.4375 8.015625 C-45.12592543 9.87982568 -48.10137748 12.64492758 -50.90234375 17.96875 C-53.25 20.828125 -53.25 20.828125 -56.88671875 21.44921875 C-58.23802381 21.4188375 -59.58892715 21.35672745 -60.9375 21.265625 C-61.62650391 21.24693359 -62.31550781 21.22824219 -63.02539062 21.20898438 C-68.0520169 21.0261081 -68.0520169 21.0261081 -69.25 19.828125 C-69.78436342 13.01499133 -67.97714199 9.34033153 -64.1875 3.828125 C-57.30948938 -4.04131058 -46.12207959 -8.26591908 -35.88671875 -9.10546875 C-23.26185285 -9.42342834 -10.10497254 -8.33660235 0 0 Z M-28.0625 46.578125 C-29.09181641 46.73539063 -30.12113281 46.89265625 -31.18164062 47.0546875 C-39.78587929 48.46967931 -48.88474158 50.46286658 -55.25 56.828125 C-57.75682671 61.08077745 -58.170309 64.99853882 -57.25 69.828125 C-54.92514813 74.13861548 -51.23289504 77.72494971 -46.55859375 79.390625 C-38.48831747 80.92001746 -29.53713118 81.13322157 -22.17578125 77.140625 C-14.89260766 72.17683935 -11.07773384 66.52370722 -9.25 57.828125 C-8.96126662 53.46872436 -9.0004613 49.18812058 -9.25 44.828125 C-15.663942 44.5741075 -21.74433504 45.52966171 -28.0625 46.578125 Z " fill="#FEFEFF" transform="translate(388.25,92.171875)"/>
<path d="M0 0 C11.44371706 11.60522113 14.0923626 26.81146445 14.36328125 42.50390625 C14 45 14 45 12.88871765 46.63471985 C10.08432473 48.66190585 7.84996876 48.35961166 4.41723633 48.34057617 C3.75355545 48.34101425 3.08987457 48.34145233 2.40608215 48.34190369 C0.21443161 48.33981519 -1.97645201 48.31648268 -4.16796875 48.29296875 C-5.6882536 48.28737298 -7.20854386 48.28310279 -8.72883606 48.28010559 C-12.72877965 48.26865524 -16.72839606 48.23918672 -20.72821045 48.20599365 C-24.8102984 48.17529669 -28.89243925 48.16160107 -32.97460938 48.14648438 C-40.98322301 48.11431695 -48.99157079 48.0631186 -57 48 C-56.55519941 50.06402583 -56.10166698 52.12617103 -55.64453125 54.1875 C-55.39292236 55.33605469 -55.14131348 56.48460937 -54.88208008 57.66796875 C-52.87854826 65.23625059 -49.37487448 70.5240243 -43 75 C-36.70812644 78.60092763 -29.13971945 78.67141574 -22.234375 76.859375 C-15.81933028 74.39205011 -11.0697644 70.47852899 -7 65 C-3.79226388 63.93075463 -1.37015182 63.83315044 2 63.8125 C3.051875 63.79832031 4.10375 63.78414063 5.1875 63.76953125 C8 64 8 64 11 66 C11.10758756 71.80972839 9.87246692 74.69792576 6.0625 79.125 C-4.39311859 89.8949489 -16.34343457 93.495294 -31.03125 93.99609375 C-44.21628351 94.00907115 -54.42802989 90.16894445 -64.03125 81.08984375 C-76.45882415 67.89787516 -76.58374366 49.723233 -76.13183594 32.67626953 C-75.56767392 21.22378064 -70.63604929 8.96124075 -62.75390625 0.5234375 C-45.24338549 -14.68614623 -17.74117205 -15.01951497 0 0 Z M-49.4296875 11.1484375 C-55.60762182 18.43286752 -56.11445841 24.25904253 -57 34 C-39.84 34 -22.68 34 -5 34 C-5.98566244 24.14337558 -7.21335448 18.58383405 -13.375 11.125 C-24.35778085 2.2341774 -38.67986048 0.99860083 -49.4296875 11.1484375 Z " fill="#FEFEFF" transform="translate(666,94)"/>
<path d="M0 0 C5.82732428 6.27781568 8.77522553 13.04447865 8.4921875 21.625 C8.25390625 23.375 8.25390625 23.375 7.25390625 24.375 C4.55735771 24.44819621 1.88699167 24.46742537 -0.80859375 24.4375 C-1.94651367 24.43073242 -1.94651367 24.43073242 -3.10742188 24.42382812 C-4.98701246 24.4120068 -6.86656274 24.39407078 -8.74609375 24.375 C-9.12121094 23.63894531 -9.49632812 22.90289062 -9.8828125 22.14453125 C-13.87178327 14.53835776 -17.37627765 8.53342117 -25.74609375 5.375 C-34.13559356 3.64269714 -41.58199809 4.34081395 -49.05859375 8.625 C-54.88588009 12.58709131 -57.29760959 17.57826665 -58.74609375 24.375 C-59.22949575 28.03663127 -59.53078041 31.6884155 -59.74609375 35.375 C-59.78863281 36.09429687 -59.83117187 36.81359375 -59.875 37.5546875 C-60.14630426 47.14077134 -59.9817208 59.58509202 -53.74609375 67.375 C-48.03003981 73.14290024 -42.04045082 75.32205643 -34.01171875 75.40234375 C-28.0178899 75.07947175 -22.52306567 74.20914852 -17.74609375 70.375 C-13.93245439 65.81596749 -11.35613358 60.68692856 -8.74609375 55.375 C-6.2876877 55.34808315 -3.82957493 55.32820198 -1.37109375 55.3125 C-0.67242187 55.30412109 0.02625 55.29574219 0.74609375 55.28710938 C6.02734375 55.26171875 6.02734375 55.26171875 8.25390625 56.375 C8.87451795 66.14963423 6.40888294 72.12237298 0.12890625 79.625 C-8.44335383 88.70482811 -19.63617863 91.75022996 -31.83203125 92.50390625 C-44.82178345 92.85561434 -55.26288101 89.31674426 -66.05859375 82.1875 C-72.93132767 74.99510404 -76.91303564 67.11220467 -78.74609375 57.375 C-78.87628906 56.6840625 -79.00648438 55.993125 -79.140625 55.28125 C-81.89095499 36.21229538 -80.21112863 16.66096084 -68.83984375 0.69921875 C-61.60797457 -7.32869573 -50.73757976 -11.55093466 -40.125 -12.55859375 C-25.14538814 -12.97674383 -11.24470489 -10.46487077 0 0 Z " fill="#FEFEFF" transform="translate(288.74609375,95.625)"/>
<path d="M0 0 C1.24112549 0.01571045 1.24112549 0.01571045 2.50732422 0.03173828 C3.85117187 0.04140625 3.85117187 0.04140625 5.22216797 0.05126953 C6.62789062 0.07640625 6.62789062 0.07640625 8.06201172 0.10205078 C9.00689453 0.11107422 9.95177734 0.12009766 10.92529297 0.12939453 C13.26278464 0.15300556 15.59977295 0.18593562 17.93701172 0.22705078 C16.61701172 0.88705078 15.29701172 1.54705078 13.93701172 2.22705078 C14.24638672 3.58830078 14.24638672 3.58830078 14.56201172 4.97705078 C14.94973622 8.33732975 14.74113139 9.46780893 12.93701172 12.22705078 C13.92701172 12.72205078 13.92701172 12.72205078 14.93701172 13.22705078 C14.60701172 13.55705078 14.27701172 13.88705078 13.93701172 14.22705078 C13.93701172 15.29955078 13.93701172 16.37205078 13.93701172 17.47705078 C13.93701172 20.61846896 13.67159831 23.19688107 12.93701172 26.22705078 C11.94701172 26.22705078 10.95701172 26.22705078 9.93701172 26.22705078 C9.27701172 25.23705078 8.61701172 24.24705078 7.93701172 23.22705078 C7.74179932 23.74640198 7.54658691 24.26575317 7.34545898 24.80084229 C5.27057721 30.31967287 3.19271058 35.83737351 1.11328125 41.35449219 C0.34269382 43.40011553 -0.4271893 45.44600437 -1.19628906 47.4921875 C-6.32563021 61.13690544 -11.59139286 74.71578823 -17.06298828 88.22705078 C-11.78298828 88.22705078 -6.50298828 88.22705078 -1.06298828 88.22705078 C-1.39298828 89.87705078 -1.72298828 91.52705078 -2.06298828 93.22705078 C-1.84101015 95.92550968 -1.84101015 95.92550968 -1.06298828 98.22705078 C-0.07298828 98.72205078 -0.07298828 98.72205078 0.93701172 99.22705078 C1.26701172 100.21705078 1.59701172 101.20705078 1.93701172 102.22705078 C8.86701172 102.72205078 8.86701172 102.72205078 15.93701172 103.22705078 C15.93701172 103.55705078 15.93701172 103.88705078 15.93701172 104.22705078 C3.06701172 104.22705078 -9.80298828 104.22705078 -23.06298828 104.22705078 C-24.05298828 107.52705078 -25.04298828 110.82705078 -26.06298828 114.22705078 C-27.19499537 117.3940979 -28.34777301 120.53099351 -29.56298828 123.66455078 C-29.85818359 124.4528125 -30.15337891 125.24107422 -30.45751953 126.05322266 C-30.75013672 126.81054688 -31.04275391 127.56787109 -31.34423828 128.34814453 C-31.60269531 129.02288818 -31.86115234 129.69763184 -32.12744141 130.39282227 C-33.19000577 132.47608063 -34.24604314 133.7566711 -36.06298828 135.22705078 C-39.09423828 135.59033203 -39.09423828 135.59033203 -42.56298828 135.53955078 C-43.70767578 135.53568359 -44.85236328 135.53181641 -46.03173828 135.52783203 C-49.06298828 135.22705078 -49.06298828 135.22705078 -52.06298828 133.22705078 C-52.87537224 127.08398424 -50.90391378 122.33268041 -48.64501953 116.75830078 C-48.28021484 115.82966721 -47.91541016 114.90103363 -47.53955078 113.94425964 C-46.32867204 110.86760716 -45.10186377 107.79755507 -43.87548828 104.72705078 C-42.58074517 101.44688747 -41.29045243 98.16499566 -40.00041199 94.88298035 C-39.09564427 92.58169406 -38.18954116 90.28093239 -37.28218079 87.98066711 C-31.5832328 73.51757856 -26.07834151 58.98056718 -20.55899048 44.44824219 C-16.28289389 33.19421505 -11.99562463 21.9446818 -7.57470703 10.74658203 C-7.08403496 9.48874153 -7.08403496 9.48874153 -6.58345032 8.20549011 C-6.1279908 7.06144463 -6.1279908 7.06144463 -5.66333008 5.89428711 C-5.40110153 5.23036453 -5.13887299 4.56644196 -4.86869812 3.88240051 C-3.67296093 1.42573045 -2.76753742 0.30459288 0 0 Z " fill="#E8ADE7" transform="translate(795.06298828125,50.77294921875)"/>
<path d="M0 0 C1.24652344 -0.02835938 2.49304688 -0.05671875 3.77734375 -0.0859375 C7.0625 0.375 7.0625 0.375 8.74401283 2.06934357 C10.3308679 4.84429859 10.43962778 6.54100843 10.44345093 9.72644043 C10.4519104 10.81158432 10.46036987 11.89672821 10.46908569 13.01475525 C10.463013 14.20033524 10.45694031 15.38591522 10.45068359 16.60742188 C10.45594055 17.85979141 10.46119751 19.11216095 10.46661377 20.40248108 C10.4775564 23.83441247 10.47499003 27.26580139 10.46547651 30.69770241 C10.45787866 34.28997144 10.46492587 37.88221736 10.46963501 41.4744873 C10.47509221 47.50695963 10.46790195 53.53932175 10.45361328 59.57177734 C10.43728675 66.54509611 10.44257529 73.51815174 10.4590925 80.49146414 C10.47270844 86.47969105 10.47462652 92.46783876 10.46677649 98.45607615 C10.46210054 102.0321169 10.46147289 105.60803398 10.47138596 109.18406677 C10.48166446 113.1703412 10.46741634 117.15632111 10.45068359 121.14257812 C10.45675629 122.32815811 10.46282898 123.5137381 10.46908569 124.73524475 C10.46062622 125.82038864 10.45216675 126.90553253 10.44345093 128.02355957 C10.44231985 128.96596748 10.44118877 129.9083754 10.44002342 130.87934113 C9.9894006 133.85823138 9.16437125 135.23691246 7.0625 137.375 C4.03125 137.8359375 4.03125 137.8359375 0.5625 137.75 C-0.5821875 137.73710937 -1.726875 137.72421875 -2.90625 137.7109375 C-5.9375 137.375 -5.9375 137.375 -8.9375 135.375 C-9.31223011 133.05738068 -9.31223011 133.05738068 -9.3117218 130.09875488 C-9.31873611 128.97981339 -9.32575043 127.86087189 -9.33297729 126.70802307 C-9.32533356 125.47470749 -9.31768982 124.24139191 -9.30981445 122.97070312 C-9.31346512 121.67639877 -9.31711578 120.38209442 -9.32087708 119.04856873 C-9.33030197 115.49278251 -9.32084747 111.93727079 -9.30754495 108.38150597 C-9.29625013 104.66551025 -9.30033642 100.94952845 -9.30229187 97.23352051 C-9.30317547 90.99238587 -9.29208069 84.75135973 -9.27368164 78.51025391 C-9.25251296 71.28818186 -9.24900372 64.06626879 -9.2552436 56.844172 C-9.26093265 49.90512137 -9.25529704 42.96612689 -9.24407005 36.02708435 C-9.23941795 33.07017481 -9.23855284 30.11329954 -9.2406559 27.15638733 C-9.24288431 23.03060532 -9.22844991 18.90504726 -9.2121582 14.77929688 C-9.21463562 13.54598129 -9.21711304 12.31266571 -9.21966553 11.04197693 C-9.21258072 9.92303543 -9.20549591 8.80409393 -9.19819641 7.65124512 C-9.19614354 6.67489861 -9.19409067 5.69855209 -9.19197559 4.69261932 C-8.59649695 -0.73066226 -4.48923383 0.04632852 0 0 Z " fill="#FEFEFF" transform="translate(710.9375,48.625)"/>
<path d="M0 0 C1.03447266 0.01160156 1.03447266 0.01160156 2.08984375 0.0234375 C2.77949219 0.01570313 3.46914063 0.00796875 4.1796875 0 C9.33651082 0.02010457 9.33651082 0.02010457 11.58984375 2.2734375 C11.84431934 4.55982208 11.84431934 4.55982208 11.85054016 7.47375488 C11.85762497 8.57586807 11.86470978 9.67798126 11.87200928 10.81349182 C11.86953186 12.02810593 11.86705444 13.24272003 11.86450195 14.49414062 C11.87216835 16.40633644 11.87216835 16.40633644 11.87998962 18.35716248 C11.8934071 21.85916178 11.89395534 25.36105334 11.89142632 28.86307335 C11.89035861 31.78325477 11.89523476 34.70341422 11.90003175 37.62359095 C11.91113613 44.51030774 11.91155892 51.39696999 11.90551758 58.28369141 C11.89947384 65.39673267 11.91179669 72.50957632 11.93308765 79.62258387 C11.95067816 85.72283013 11.95670912 91.82301335 11.9534499 97.92328405 C11.95163303 101.56972466 11.95431322 105.21602428 11.96816444 108.86244202 C11.98302208 112.92600428 11.97379515 116.9891617 11.9621582 121.05273438 C11.97362381 122.87465553 11.97362381 122.87465553 11.98532104 124.73338318 C11.97830673 125.83549637 11.97129242 126.93760956 11.96406555 128.07312012 C11.96423329 129.03471794 11.96440104 129.99631577 11.96457386 130.98705292 C11.84091292 131.74155983 11.71725199 132.49606674 11.58984375 133.2734375 C8.01862657 135.65424895 6.32309742 135.54250621 2.08984375 135.5234375 C0.94515625 135.52859375 -0.19953125 135.53375 -1.37890625 135.5390625 C-4.41015625 135.2734375 -4.41015625 135.2734375 -7.41015625 133.2734375 C-7.78488636 130.98705292 -7.78488636 130.98705292 -7.78437805 128.07312012 C-7.79139236 126.97100693 -7.79840668 125.86889374 -7.80563354 124.73338318 C-7.79798981 123.51876907 -7.79034607 122.30415497 -7.7824707 121.05273438 C-7.78612137 119.77793716 -7.78977203 118.50313995 -7.79353333 117.18971252 C-7.80295789 113.68764209 -7.79350402 110.18585036 -7.7802012 106.68380165 C-7.76890599 103.02386036 -7.7729927 99.36393319 -7.77494812 95.70397949 C-7.77583171 89.55700106 -7.7647372 83.41013277 -7.74633789 77.26318359 C-7.72516922 70.15017401 -7.72165998 63.03732584 -7.72789985 55.92429113 C-7.73358899 49.08989162 -7.72795317 42.25554913 -7.7167263 35.42115784 C-7.71207433 32.50890553 -7.71120904 29.59668801 -7.71331215 26.68443298 C-7.71554065 22.62091571 -7.70110582 18.5576258 -7.68481445 14.49414062 C-7.68729187 13.27952652 -7.68976929 12.06491241 -7.69232178 10.81349182 C-7.68523697 9.71137863 -7.67815216 8.60926544 -7.67085266 7.47375488 C-7.66879979 6.51215706 -7.66674692 5.55055923 -7.66463184 4.55982208 C-7.12906105 -0.25211598 -4.16651053 0.01624371 0 0 Z " fill="#EB948C" transform="translate(891.41015625,50.7265625)"/>
<path d="M0 0 C6.31512364 0.26872867 11.7120178 2.57020735 17 6 C21.1082079 10.54308576 21.127599 14.77527221 21.18945312 20.73706055 C21.19774643 21.40593796 21.20603973 22.07481537 21.21458435 22.76396179 C21.23194461 24.21313337 21.24712231 25.66233238 21.26036072 27.11154747 C21.28148349 29.41214949 21.30850291 31.71261652 21.33703613 34.01313782 C21.39663392 38.904539 21.4487632 43.79600508 21.5 48.6875 C21.55945647 54.3414339 21.62203932 59.99530253 21.69187927 65.64911842 C21.71820809 67.90283198 21.7391759 70.15655298 21.7598877 72.4103241 C21.85133539 80.91221777 21.85133539 80.91221777 22.58007812 89.37817383 C23 93 23 93 22 95 C14.08 95 6.16 95 -2 95 C-3.01722231 90.93111075 -2.80684123 89.89435938 -2 86 C-1.88930582 83.20762564 -1.82562038 80.43824267 -1.81054688 77.64550781 C-1.80225357 76.81733047 -1.79396027 75.98915314 -1.78541565 75.13587952 C-1.76806473 73.34402589 -1.75288455 71.55215021 -1.73963928 69.76026154 C-1.71856534 66.92831072 -1.69155009 64.09647172 -1.66296387 61.2645874 C-1.59323098 54.23644595 -1.5336023 47.20822559 -1.47393799 40.17999268 C-1.42309494 34.23183032 -1.36832247 28.28373045 -1.30812073 22.33565521 C-1.28146958 19.53866914 -1.26070768 16.74167741 -1.2401123 13.94464111 C-1.22351905 12.24206255 -1.20664809 10.53948666 -1.18945312 8.83691406 C-1.18526871 8.05355179 -1.18108429 7.27018951 -1.17677307 6.46308899 C-1.1138534 1.1138534 -1.1138534 1.1138534 0 0 Z " fill="#FEFEFF" transform="translate(35,146)"/>
<path d="M0 0 C6.7072366 0.37262426 12.44806449 2.09490859 18 6 C20.67016259 9.69950741 21.38009865 12.29227038 21.41650391 16.82495117 C21.44135361 18.54780586 21.44135361 18.54780586 21.46670532 20.3054657 C21.46995819 21.53884171 21.47321106 22.77221771 21.4765625 24.04296875 C21.50037324 25.99736529 21.52418785 27.9517618 21.5482235 29.90615559 C21.57816312 32.64092578 21.59461651 35.37571732 21.61126709 38.1105957 C21.64277024 42.8749914 21.69438683 47.63920192 21.74765015 52.40339661 C21.77460925 54.93547667 21.79607375 57.46762316 21.81118774 59.99980164 C21.8650537 66.11136767 22.09989175 72.04642593 22.98397827 78.09907532 C22.98926544 78.72638046 22.99455261 79.35368561 23 80 C21 82 21 82 18.76928711 82.24291992 C17.41202515 82.23675659 17.41202515 82.23675659 16.02734375 82.23046875 C15.04572266 82.22853516 14.06410156 82.22660156 13.05273438 82.22460938 C12.02470703 82.21236328 10.99667969 82.20011719 9.9375 82.1875 C8.90560547 82.18685547 7.87371094 82.18621094 6.81054688 82.18554688 C-0.85984003 82.14015997 -0.85984003 82.14015997 -2 81 C-1.90718135 79.44624051 -1.74933937 77.89632826 -1.56640625 76.35058594 C-0.8647922 69.35443528 -0.89263093 62.41601086 -0.9375 55.390625 C-0.94191859 54.01064224 -0.94573165 52.63065741 -0.94897461 51.25067139 C-0.96028391 46.917084 -0.97954566 42.5835526 -1 38.25 C-1.02371504 33.20776499 -1.04404625 28.1655613 -1.05593872 23.12328339 C-1.06236268 21.12092866 -1.07493742 19.11859667 -1.08764648 17.11627197 C-1.10330875 11.30662369 -1.08247105 5.7170666 0 0 Z " fill="#FEFEFF" transform="translate(106,159)"/>
<path d="M0 0 C3 3.75 3 3.75 3 6 C3.66 6.66 4.32 7.32 5 8 C6.95088458 11.5359783 8.59864868 15.244088 9.5 19.1875 C9.9037763 21.23284665 9.9037763 21.23284665 12 23 C14.64786398 29.70977049 15.91410826 36.95565927 17.3515625 43.99609375 C17.94924276 47.0292806 17.94924276 47.0292806 19 50 C19.14469246 52.18429961 19.22065175 54.37361001 19.25 56.5625 C19.27578125 57.71878906 19.3015625 58.87507813 19.328125 60.06640625 C19.21984375 61.03449219 19.1115625 62.00257813 19 63 C15.42878282 65.38081145 13.73325367 65.26906871 9.5 65.25 C8.3553125 65.25515625 7.210625 65.2603125 6.03125 65.265625 C3 65 3 65 0 63 C-0.36076355 60.36776733 -0.36076355 60.36776733 -0.34057617 56.98974609 C-0.34034958 55.72858978 -0.34012299 54.46743347 -0.33988953 53.1680603 C-0.32456844 51.78651579 -0.30892044 50.40497487 -0.29296875 49.0234375 C-0.28737433 47.61382497 -0.2831035 46.20420662 -0.28010559 44.79458618 C-0.26864454 41.08231536 -0.23916704 37.370396 -0.20599365 33.65826416 C-0.1753196 29.87118281 -0.16160599 26.08404474 -0.14648438 22.296875 C-0.11429811 14.864423 -0.0630871 7.43226072 0 0 Z " fill="#FBBBA2" transform="translate(884,121)"/>
<path d="M0 0 C1.32 0 2.64 0 4 0 C4 0.66 4 1.32 4 2 C4.99 2 5.98 2 7 2 C8.37701298 3.28817344 9.70644173 4.62804426 11 6 C11.763125 6.391875 12.52625 6.78375 13.3125 7.1875 C13.869375 7.785625 14.42625 8.38375 15 9 C14.72746534 16.09288917 12.8327967 21.86270041 10.125 28.375 C9.59712891 29.70724609 9.59712891 29.70724609 9.05859375 31.06640625 C5.98871208 38.60987012 5.98871208 38.60987012 3 41 C-0.03125 41.36328125 -0.03125 41.36328125 -3.5 41.3125 C-4.6446875 41.30863281 -5.789375 41.30476563 -6.96875 41.30078125 C-10 41 -10 41 -13 39 C-13.58896854 33.67170737 -12.38924966 29.44517251 -10.41015625 24.5703125 C-10.14617538 23.89451141 -9.88219452 23.21871033 -9.61021423 22.52243042 C-8.77197055 20.38542636 -7.91723683 18.25545264 -7.0625 16.125 C-6.49181102 14.67227823 -5.92213945 13.21915635 -5.35351562 11.765625 C-4.81079523 10.38766626 -4.26720652 9.01004912 -3.72265625 7.6328125 C-3.46533218 6.98184601 -3.20800812 6.33087952 -2.94288635 5.66018677 C-1.11889888 1.11889888 -1.11889888 1.11889888 0 0 Z " fill="#E4E3F8" transform="translate(756,145)"/>
<path d="M0 0 C0.33 0.66 0.66 1.32 1 2 C1.66 2 2.32 2 3 2 C4.86215742 6.7464442 6.71320657 11.49701552 8.55419922 16.25170898 C9.18171365 17.86779351 9.81222055 19.48271945 10.44580078 21.09643555 C11.35722911 23.4193616 12.25773022 25.74627416 13.15625 28.07421875 C13.44060913 28.79212082 13.72496826 29.51002289 14.01794434 30.24967957 C16.65950029 37.15453142 16.65950029 37.15453142 16 41 C12.46763908 43.35490728 10.75279632 43.32743705 6.5625 43.375 C5.42941406 43.40335938 4.29632812 43.43171875 3.12890625 43.4609375 C0 43 0 43 -2.17578125 41.56640625 C-4.8266298 37.83705401 -6.23286813 33.85669945 -7.75 29.5625 C-8.22373047 28.2930957 -8.22373047 28.2930957 -8.70703125 26.99804688 C-10.23673699 22.76983426 -11.09193331 19.5249011 -11 15 C-11.309375 13.9171875 -11.309375 13.9171875 -11.625 12.8125 C-11.74875 12.214375 -11.8725 11.61625 -12 11 C-11.34 10.34 -10.68 9.68 -10 9 C-9.01 9 -8.02 9 -7 9 C-6.67 8.01 -6.34 7.02 -6 6 C-4.35360035 4.64172029 -2.68704193 3.30745749 -1 2 C-0.67 1.34 -0.34 0.68 0 0 Z " fill="#FCC8B5" transform="translate(848,143)"/>
<path d="M0 0 C3 1 3 1 4.12677002 3.07418823 C4.47842224 3.98669342 4.83007446 4.89919861 5.19238281 5.83935547 C5.59579895 6.87067596 5.99921509 7.90199646 6.41485596 8.96456909 C6.83998474 10.08743317 7.26511353 11.21029724 7.703125 12.3671875 C8.14517273 13.51285187 8.58722046 14.65851624 9.04266357 15.83889771 C10.21551227 18.88909842 11.37734334 21.94323232 12.53552246 24.99902344 C13.24904515 26.87249289 13.97057903 28.74265744 14.6953125 30.61181641 C16.08325516 34.19306873 17.45795748 37.77910186 18.828125 41.3671875 C19.26135071 42.48600311 19.69457642 43.60481873 20.14093018 44.75753784 C20.53173767 45.79516266 20.92254517 46.83278748 21.32519531 47.90185547 C21.67366516 48.81595184 22.02213501 49.73004822 22.38116455 50.67184448 C23 53 23 53 22 56 C21.01 56.495 21.01 56.495 20 57 C19.34 57.99 18.68 58.98 18 60 C15.27124618 61.94910987 14.15155524 62.01748714 10.75 61.625 C9.8425 61.41875 8.935 61.2125 8 61 C8.33 60.01 8.66 59.02 9 58 C9.10540926 55.78918149 9.10540926 55.78918149 8 53 C5.49552484 51.78130071 5.49552484 51.78130071 3 51 C3.33 50.01 3.66 49.02 4 48 C3.46029721 45.6971385 3.46029721 45.6971385 2.5625 43.25 C1.18604859 38.98424069 0.91352011 35.49695443 1 31 C0.67515625 30.19691406 0.3503125 29.39382812 0.015625 28.56640625 C-1.48797236 23.28646629 -1.24884757 18.14743376 -1.1875 12.6875 C-1.1865332 11.02364258 -1.1865332 11.02364258 -1.18554688 9.32617188 C-1.14043257 1.14043257 -1.14043257 1.14043257 0 0 Z " fill="#FBB9A2" transform="translate(826,86)"/>
<path d="M0 0 C2.47923801 -0.02685095 4.9581884 -0.04676547 7.4375 -0.0625 C8.14455078 -0.07087891 8.85160156 -0.07925781 9.58007812 -0.08789062 C11.38693559 -0.09653588 13.19387603 -0.05220011 15 0 C16 1 16 1 16.12025452 3.51197815 C16.1169236 5.18742958 16.1169236 5.18742958 16.11352539 6.89672852 C16.11344986 8.15796036 16.11337433 9.4191922 16.11329651 10.71864319 C16.1081891 12.10539794 16.10297309 13.49215229 16.09765625 14.87890625 C16.09579201 16.28995209 16.09436814 17.70099857 16.09336853 19.11204529 C16.08954379 22.83240535 16.0797139 26.5527266 16.06866455 30.27307129 C16.05844948 34.06680781 16.05387071 37.86055058 16.04882812 41.65429688 C16.03809158 49.10288231 16.0210157 56.55143572 16 64 C15.505 62.515 15.505 62.515 15 61 C14.34 60.67 13.68 60.34 13 60 C11.2305521 56.4611042 11 53.88772359 11 50 C10.18629024 46.74516096 9.30832189 43.68919011 7.9375 40.625 C6.80472588 37.45323246 6.58824503 34.47229981 6.28515625 31.1328125 C6.0720091 28.86461571 6.0720091 28.86461571 4.9375 26.375 C3.68256088 23.1958209 4 20.41171859 4 17 C3.21090548 10.93258662 3.21090548 10.93258662 0 6 C-0.125 2.875 -0.125 2.875 0 0 Z " fill="#DF8D89" transform="translate(887,52)"/>
<path d="M0 0 C3.99357628 0.5705109 6.57784475 1.92869551 10 4 C10.99 4 11.98 4 13 4 C13 4.66 13 5.32 13 6 C13.94875 6 14.8975 6 15.875 6 C17.58333333 6 19.29166667 6 21 6 C21.88945313 5.26330078 21.88945313 5.26330078 22.796875 4.51171875 C25.50802297 2.65140977 27.00295455 2.68432715 30.25 2.8125 C31.58804688 2.85310547 31.58804688 2.85310547 32.953125 2.89453125 C33.62859375 2.92933594 34.3040625 2.96414062 35 3 C34.7215625 4.0828125 34.7215625 4.0828125 34.4375 5.1875 C33.97467505 8.16280327 34.12370334 10.13212002 35 13 C35.66 13.33 36.32 13.66 37 14 C37.495 15.485 37.495 15.485 38 17 C44.93 17.495 44.93 17.495 52 18 C52 18.33 52 18.66 52 19 C39.13 19 26.26 19 13 19 C12.67 19.66 12.34 20.32 12 21 C12 20.01 12 19.02 12 18 C11.236875 17.731875 10.47375 17.46375 9.6875 17.1875 C7.11011382 16.04865495 5.73045136 15.18583329 4 13 C4 12.34 4 11.68 4 11 C3.01 11 2.02 11 1 11 C1 10.34 1 9.68 1 9 C-0.32 8.67 -1.64 8.34 -3 8 C-2.01 5.36 -1.02 2.72 0 0 Z " fill="#F3B9E1" transform="translate(759,136)"/>
<path d="M0 0 C2.86191302 1.43095651 3.46054572 3.43890126 4.9375 6.25 C6.45984302 9.13116071 7.97679436 11.96248511 9.69140625 14.734375 C11 17 11 17 11 19 C11.66 19.66 12.32 20.32 13 21 C13.76876867 22.67123623 14.52694164 24.34885867 15.20947266 26.05712891 C15.9224502 27.80940664 16.74817371 29.51477534 17.5859375 31.2109375 C20.0940082 37.92451503 19.31070858 45.43914114 19.1875 52.5 C19.1724286 54.00519497 19.15874453 55.51040451 19.14648438 57.015625 C19.11366687 60.67738941 19.06201989 64.33860021 19 68 C16.96402903 64.94604355 16.59651515 63.47217173 16.0625 59.9375 C14.73400339 52.09106691 12.69394412 45.06667571 9 38 C8.5359375 36.5459375 8.5359375 36.5459375 8.0625 35.0625 C7.04419455 32.1273843 5.73145245 29.6431155 4.09765625 27.00390625 C0.54098916 20.51077381 -0.41851338 15.91346423 -0.1875 8.5625 C-0.17396484 7.73556641 -0.16042969 6.90863281 -0.14648438 6.05664062 C-0.11146992 4.0374736 -0.05767562 2.01864682 0 0 Z " fill="#F4A295" transform="translate(884,103)"/>
<path d="M0 0 C3 3.75 3 3.75 3 6 C3.66 6.66 4.32 7.32 5 8 C6.95088458 11.5359783 8.59864868 15.244088 9.5 19.1875 C9.9037763 21.23284665 9.9037763 21.23284665 12 23 C14.64786398 29.70977049 15.91410826 36.95565927 17.3515625 43.99609375 C17.94924276 47.0292806 17.94924276 47.0292806 19 50 C19.09449363 52.20670414 19.12989739 54.41627905 19.125 56.625 C19.12886719 58.37683594 19.12886719 58.37683594 19.1328125 60.1640625 C19 63 19 63 18 64 C16.00041636 64.04080783 13.99954746 64.04254356 12 64 C11.87882813 62.70964844 11.75765625 61.41929687 11.6328125 60.08984375 C11.46387992 58.37236253 11.29459013 56.65491642 11.125 54.9375 C11.04636719 54.08994141 10.96773437 53.24238281 10.88671875 52.36914062 C10.38461503 47.36741512 9.50517922 42.81895325 8 38 C7.67219659 36.48239162 7.35726758 34.96186949 7.0625 33.4375 C6.23493189 29.59289222 4.85672654 26.48136226 3 23 C2.32204472 21.00379834 1.65266469 19.00461299 1 17 C0.67 16.67 0.34 16.34 0 16 C-0.07319621 13.30345146 -0.09242537 10.63308542 -0.0625 7.9375 C-0.05798828 7.17888672 -0.05347656 6.42027344 -0.04882812 5.63867188 C-0.0370068 3.75908129 -0.01907078 1.87953101 0 0 Z " fill="#F9AE9C" transform="translate(884,121)"/>
<path d="M0 0 C6.6 0 13.2 0 20 0 C18.02 0.99 18.02 0.99 16 2 C16.20625 2.9075 16.4125 3.815 16.625 4.75 C17.0127245 8.11027897 16.80411967 9.24075815 15 12 C15.66 12.33 16.32 12.66 17 13 C16.67 13.33 16.34 13.66 16 14 C16 15.0725 16 16.145 16 17.25 C16 20.39141818 15.7345866 22.96983029 15 26 C14.01 26 13.02 26 12 26 C11.34 25.01 10.68 24.02 10 23 C8.02 28.28 6.04 33.56 4 39 C2.35 37.35 0.7 35.7 -1 34 C-0.875 31.9375 -0.875 31.9375 0 30 C0.89867776 26.90455439 1.08264731 24.22324508 1 21 C1 18.47622403 1.21891693 16.23771538 1.5625 13.75 C2.04660689 9.57713498 1.85598394 6.10872291 1 2 C0.67 1.67 0.34 1.34 0 1 C0 0.67 0 0.34 0 0 Z " fill="#E5B1DC" transform="translate(793,51)"/>
<path d="M0 0 C16.83 0 33.66 0 51 0 C51 0.33 51 0.66 51 1 C43.08 1.495 43.08 1.495 35 2 C37.64 4.31 40.28 6.62 43 9 C42.34 11.31 41.68 13.62 41 16 C32.96992764 17.50563857 25.08567124 16.63782601 17 16 C16.85820313 15.25105469 16.71640625 14.50210938 16.5703125 13.73046875 C16.00428666 10.81569006 16.00428666 10.81569006 14.875 7.3125 C14 4 14 4 15 2 C14.00419922 2.01740234 14.00419922 2.01740234 12.98828125 2.03515625 C4.21792619 2.12478032 4.21792619 2.12478032 0 1 C0 0.67 0 0.34 0 0 Z " fill="#F5B6D1" transform="translate(778,138)"/>
<path d="M0 0 C5.34421043 1.28998183 7.7211252 2.40957527 11 7 C11.33 7.99 11.66 8.98 12 10 C12.66 10.33 13.32 10.66 14 11 C15.26771508 14.41307907 15.09194247 15.77671114 13.6875 19.1875 C12 22 12 22 10 24 C7.06640625 24.265625 7.06640625 24.265625 3.5625 24.25 C1.83193359 24.25773437 1.83193359 24.25773437 0.06640625 24.265625 C-3 24 -3 24 -6 22 C-6.68216941 16.30814896 -5.22102997 12.15986384 -3 7.0625 C-2.71382812 6.37865234 -2.42765625 5.69480469 -2.1328125 4.99023438 C-1.43291583 3.32214731 -0.71800007 1.66037517 0 0 Z " fill="#DEF1FC" transform="translate(749,162)"/>
<path d="M0 0 C5.51886792 -0.36792453 5.51886792 -0.36792453 7.59375 1.21875 C9.24397225 3.30903152 9.91390428 5.1456855 10.6875 7.6875 C11.06455078 8.89986328 11.06455078 8.89986328 11.44921875 10.13671875 C11.63097656 10.75160156 11.81273437 11.36648437 12 12 C11.01 12.33 10.02 12.66 9 13 C8.88476681 15.92024369 8.88476681 15.92024369 9.5625 18.375 C10 21 10 21 9.5546875 23.22265625 C8.66468479 27.67893741 8.60620775 32.19113481 8.37890625 36.72265625 C8.03396654 39.70620696 7.55411536 41.47692202 6 44 C5.34 44 4.68 44 4 44 C1.69 37.73 -0.62 31.46 -3 25 C-2.01 25 -1.02 25 0 25 C-0.33 22.69 -0.66 20.38 -1 18 C-0.34 18 0.32 18 1 18 C0.91621094 17.33613281 0.83242188 16.67226562 0.74609375 15.98828125 C0.21386232 11.37336315 -0.10434845 7.55543736 1 3 C0.67 2.01 0.34 1.02 0 0 Z " fill="#F0B4BE" transform="translate(808,52)"/>
<path d="M0 0 C3.99357628 0.5705109 6.57784475 1.92869551 10 4 C10.99 4 11.98 4 13 4 C13 4.66 13 5.32 13 6 C13.66 6.33 14.32 6.66 15 7 C16.01633308 8.26263107 16.99061733 9.55948362 17.9375 10.875 C19.85348165 13.53091319 21.65836084 15.65836084 24 18 C20.37 18 16.74 18 13 18 C12.67 18.99 12.34 19.98 12 21 C12 20.01 12 19.02 12 18 C11.236875 17.731875 10.47375 17.46375 9.6875 17.1875 C7.11011382 16.04865495 5.73045136 15.18583329 4 13 C4 12.34 4 11.68 4 11 C3.01 11 2.02 11 1 11 C1 10.34 1 9.68 1 9 C-0.32 8.67 -1.64 8.34 -3 8 C-2.01 5.36 -1.02 2.72 0 0 Z " fill="#EDC1ED" transform="translate(759,136)"/>
<path d="M0 0 C1.81242052 -0.02687279 3.62495233 -0.04633715 5.4375 -0.0625 C6.44683594 -0.07410156 7.45617187 -0.08570313 8.49609375 -0.09765625 C11 0 11 0 12 1 C12.08874135 4.10251201 12.11518455 7.1826812 12.09765625 10.28515625 C12.0962413 11.21597519 12.09482635 12.14679413 12.09336853 13.1058197 C12.08775172 16.09141191 12.0751964 19.07693029 12.0625 22.0625 C12.05748716 24.08137913 12.05292388 26.10025943 12.04882812 28.11914062 C12.03777683 33.07945572 12.02050095 38.03971532 12 43 C10.49937765 40.25289295 9.94134616 38.5747597 9.5 35.375 C9.33300503 31.93577375 9.33300503 31.93577375 7 30 C7 27.66666667 7 25.33333333 7 23 C6.60738073 20.54404116 6.09920444 18.13238668 5.56640625 15.703125 C4.77179835 11.91092728 4.22097127 8.08314345 3.66015625 4.25 C3.1559903 1.64016278 3.1559903 1.64016278 0 0 Z " fill="#D28A8A" transform="translate(891,52)"/>
<path d="M0 0 C6.02690296 -0.08645148 10.01843344 0.46777417 14.625 4.5625 C15.77060694 5.68773054 16.90346796 6.8268945 18 8 C17.34 10.31 16.68 12.62 16 15 C10.58264203 15.93402724 7.19548425 16.20808081 2 14 C2 11.03 2 8.06 2 5 C1.34 4.67 0.68 4.34 0 4 C0 2.68 0 1.36 0 0 Z " fill="#F8B8C0" transform="translate(803,139)"/>
<path d="M0 0 C1.32 0 2.64 0 4 0 C4 0.66 4 1.32 4 2 C4.99 2 5.98 2 7 2 C8.37701298 3.28817344 9.70644173 4.62804426 11 6 C11.763125 6.391875 12.52625 6.78375 13.3125 7.1875 C15 9 15 9 15.0625 11.1171875 C14.73685269 14.30242526 14.44033949 17.11932103 13 20 C9.11137013 18.73882275 7.10624401 17.54735833 5 14 C5 13.34 5 12.68 5 12 C4.01 12.33 3.02 12.66 2 13 C1.34 12.01 0.68 11.02 0 10 C-0.99387334 8.66209359 -1.9926892 7.32781878 -3 6 C-2.01 4.02 -1.02 2.04 0 0 Z " fill="#E9D3F3" transform="translate(756,145)"/>
<path d="M0 0 C6.6 0 13.2 0 20 0 C18.02 0.99 18.02 0.99 16 2 C16.20625 2.9075 16.4125 3.815 16.625 4.75 C17.0127245 8.11027897 16.80411967 9.24075815 15 12 C15.66 12.33 16.32 12.66 17 13 C16.67 13.33 16.34 13.66 16 14 C16 15.0725 16 16.145 16 17.25 C16 20.39141818 15.7345866 22.96983029 15 26 C14.01 26 13.02 26 12 26 C8.14872039 19.90214062 8.32368695 13.9733392 9.5 7.0625 C9.665 6.381875 9.83 5.70125 10 5 C10 4.01 10 3.02 10 2 C6.7 1.67 3.4 1.34 0 1 C0 0.67 0 0.34 0 0 Z " fill="#EAB3CF" transform="translate(793,51)"/>
<path d="M0 0 C4.02995214 0.61999264 5.39729172 2.03757217 8.1484375 4.89453125 C9.25 6.5 9.25 6.5 9.25 9.5 C6.5625 9.8125 6.5625 9.8125 3.25 9.5 C0.5625 7.125 0.5625 7.125 -1.75 4.5 C-2.74 3.84 -3.73 3.18 -4.75 2.5 C-2.75 0.5 -2.75 0.5 0 0 Z " fill="#FEFEFF" transform="translate(50.75,-0.5)"/>
<path d="M0 0 C2.26296676 3.39445014 2.33376118 5.05713731 2.5625 9.0625 C2.70324708 13.18402923 2.70324708 13.18402923 4 17 C3.67 17.66 3.34 18.32 3 19 C2.01 19 1.02 19 0 19 C0 12.73 0 6.46 0 0 Z " fill="#FCC3AC" transform="translate(884,165)"/>
</svg>
