<svg version="1.1" id="Layer_1" xmlns="http://www.w3.org/2000/svg" xmlns:xlink="http://www.w3.org/1999/xlink" x="0px" y="0px"
	 width="100%" viewBox="0 0 225 225" enable-background="new 0 0 225 225" xml:space="preserve">
<path fill="#FFFFFF" opacity="1.000000" stroke="none" 
	d="
M133.000000,226.000000 
	C88.666672,226.000000 44.833340,226.000000 1.000006,226.000000 
	C1.000004,151.000000 1.000004,76.000015 1.000002,1.000016 
	C75.999992,1.000011 150.999985,1.000011 225.999969,1.000005 
	C225.999985,75.999985 225.999985,150.999969 226.000000,225.999969 
	C195.166672,226.000000 164.333328,226.000000 133.000000,226.000000 
M22.058867,103.880600 
	C22.900753,110.117142 23.147390,116.504539 24.683342,122.565178 
	C33.192017,156.139191 60.500587,179.614929 94.952919,183.180420 
	C117.363792,185.499725 137.270599,179.408752 155.071930,165.106781 
	C167.427734,177.447617 179.743515,189.828949 192.163849,202.104507 
	C195.869370,205.766861 199.676117,205.885849 202.721283,202.863174 
	C205.784561,199.822510 205.698273,195.957428 202.216522,192.279694 
	C198.787186,188.657318 195.145523,185.236694 191.623566,181.701111 
	C182.733444,172.776642 173.858276,163.837265 165.013168,154.940125 
	C179.815140,136.123749 186.251663,115.226768 182.985336,91.754776 
	C180.509781,73.965233 173.153122,58.453125 159.664642,45.383247 
	C139.458588,26.239397 115.601997,19.066046 88.162895,23.479111 
	C51.087040,29.442068 20.579815,66.189117 22.058867,103.880600 
z"/>
<path fill="#4285F3" opacity="1.000000" stroke="none" 
	d="
M159.926743,45.990074 
	C173.153122,58.453125 180.509781,73.965233 182.985336,91.754776 
	C186.251663,115.226768 179.815140,136.123749 165.013168,154.940125 
	C173.858276,163.837265 182.733444,172.776642 191.623566,181.701111 
	C195.145523,185.236694 198.787186,188.657318 202.216522,192.279694 
	C205.698273,195.957428 205.784561,199.822510 202.721283,202.863174 
	C199.676117,205.885849 195.869370,205.766861 192.163849,202.104507 
	C179.743515,189.828949 167.427734,177.447617 154.603531,164.667801 
	C151.149246,161.166519 148.163345,158.104233 145.334229,154.756851 
	C163.457077,138.700333 171.752167,119.098923 169.144257,95.106453 
	C167.461914,79.629280 160.610886,66.681419 150.432159,55.278664 
	C153.798920,52.068821 156.862823,49.029446 159.926743,45.990074 
z"/>
<path fill="#EA4436" opacity="1.000000" stroke="none" 
	d="
M159.795685,45.686661 
	C156.862823,49.029446 153.798920,52.068821 150.125885,55.087112 
	C130.903046,38.108166 109.418945,32.154114 84.926102,38.675594 
	C62.073406,44.760365 37.759750,65.617943 35.511955,102.196968 
	C30.831093,102.576561 26.521517,102.784019 22.211939,102.991470 
	C20.579815,66.189117 51.087040,29.442068 88.162895,23.479111 
	C115.601997,19.066046 139.458588,26.239397 159.795685,45.686661 
z"/>
<path fill="#FABC07" opacity="1.000000" stroke="none" 
	d="
M22.135403,103.436035 
	C26.521517,102.784019 30.831093,102.576561 35.584541,102.635315 
	C36.754742,125.405235 45.503250,143.742386 64.350502,157.188553 
	C68.714279,159.645966 72.833565,161.876266 77.076340,164.291016 
	C77.441689,164.672180 77.718170,164.760330 78.365433,164.917191 
	C84.470230,166.398682 90.238884,167.702820 96.252075,169.057648 
	C96.496605,169.108322 96.987427,169.015762 97.357269,169.182404 
	C101.811501,169.235825 105.895874,169.122620 110.404495,169.089478 
	C116.554848,167.634171 122.280968,166.098801 128.278702,164.476990 
	C128.700653,164.274658 128.850967,164.158722 129.364258,164.020355 
	C133.757385,161.660934 137.787491,159.323959 142.138214,156.912018 
	C143.365021,156.238663 144.271240,155.640305 145.177460,155.041931 
	C148.163345,158.104233 151.149246,161.166519 154.321823,164.519897 
	C137.270599,179.408752 117.363792,185.499725 94.952919,183.180420 
	C60.500587,179.614929 33.192017,156.139191 24.683342,122.565178 
	C23.147390,116.504539 22.900753,110.117142 22.135403,103.436035 
z"/>
<path fill="#FEFEFD" opacity="1.000000" stroke="none" 
	d="
M96.007538,169.006958 
	C90.238884,167.702820 84.470230,166.398682 78.394608,164.627319 
	C78.051544,163.775574 78.015450,163.391052 78.076431,162.545990 
	C78.091263,138.384369 78.009010,114.683296 77.950302,90.740341 
	C77.973846,90.498466 77.748711,90.067726 77.681503,89.734421 
	C75.144218,88.107063 72.609970,85.634926 70.217506,85.765282 
	C65.301003,86.033150 64.198631,90.103500 64.199883,94.519974 
	C64.205803,115.333786 64.143791,136.147614 64.106018,156.961441 
	C45.503250,143.742386 36.754742,125.405235 35.955826,102.463181 
	C37.759750,65.617943 62.073406,44.760365 84.926102,38.675594 
	C109.418945,32.154114 130.903046,38.108166 149.823029,55.257584 
	C160.610886,66.681419 167.461914,79.629280 169.144257,95.106453 
	C171.752167,119.098923 163.457077,138.700333 145.334229,154.756866 
	C144.271240,155.640305 143.365021,156.238663 142.079300,156.446747 
	C141.685669,142.228302 141.665314,128.400146 141.661621,114.571976 
	C141.660645,110.889328 140.376709,107.888405 136.618469,106.899834 
	C132.825394,105.902077 129.729111,107.071312 128.102997,111.269897 
	C128.008209,111.496666 128.061722,111.985313 127.932587,112.439896 
	C127.855766,129.593185 127.908073,146.291901 127.910034,163.385651 
	C127.908821,164.041580 127.957954,164.302490 128.007080,164.563416 
	C122.280968,166.098801 116.554848,167.634171 110.411812,168.620132 
	C109.995415,136.239426 110.012398,104.408119 109.979408,72.576866 
	C109.974236,67.588760 107.329338,64.483810 103.236122,64.312370 
	C99.095856,64.138969 95.976486,67.245583 95.976707,72.042480 
	C95.978180,104.035858 96.067169,136.029236 96.064331,168.264618 
	C96.003120,168.673401 96.005325,168.840179 96.007538,169.006958 
z"/>
<path fill="#35A853" opacity="1.000000" stroke="none" 
	d="
M96.127731,168.022614 
	C96.067169,136.029236 95.978180,104.035858 95.976707,72.042480 
	C95.976486,67.245583 99.095856,64.138969 103.236122,64.312370 
	C107.329338,64.483810 109.974236,67.588760 109.979408,72.576866 
	C110.012398,104.408119 109.995415,136.239426 109.987572,168.540054 
	C105.895874,169.122620 101.811501,169.235825 97.272346,168.971390 
	C96.655479,168.321426 96.425537,168.131042 96.127731,168.022614 
z"/>
<path fill="#39AA56" opacity="1.000000" stroke="none" 
	d="
M77.926765,90.982216 
	C78.009010,114.683296 78.091263,138.384369 77.844292,162.664062 
	C77.327667,163.530655 77.140259,163.818619 76.952850,164.106583 
	C72.833565,161.876266 68.714279,159.645966 64.350502,157.188553 
	C64.143791,136.147614 64.205803,115.333786 64.199883,94.519974 
	C64.198631,90.103500 65.301003,86.033150 70.217506,85.765282 
	C72.609970,85.634926 75.144218,88.107063 77.555206,89.843002 
	C77.372360,90.641647 77.515907,90.874084 77.926765,90.982216 
z"/>
<path fill="#3AAA57" opacity="1.000000" stroke="none" 
	d="
M127.960381,162.990616 
	C127.908073,146.291901 127.855766,129.593185 128.091461,112.368652 
	C128.450958,111.752815 128.601959,111.620857 128.580368,111.579918 
	C128.478790,111.387306 128.329819,111.219681 128.197784,111.043129 
	C129.729111,107.071312 132.825394,105.902077 136.618469,106.899834 
	C140.376709,107.888405 141.660645,110.889328 141.661621,114.571976 
	C141.665314,128.400146 141.685669,142.228302 141.758698,156.521729 
	C137.787491,159.323959 133.757385,161.660934 129.255997,163.787445 
	C128.509949,163.381531 128.235168,163.186066 127.960381,162.990616 
z"/>
<path fill="#1FA345" opacity="1.000000" stroke="none" 
	d="
M77.076340,164.291016 
	C77.140259,163.818619 77.327667,163.530655 77.747215,163.124603 
	C78.015450,163.391052 78.051544,163.775574 78.058456,164.449982 
	C77.718170,164.760330 77.441689,164.672180 77.076340,164.291016 
z"/>
<path fill="#27A549" opacity="1.000000" stroke="none" 
	d="
M127.910034,163.385651 
	C128.235168,163.186066 128.509949,163.381531 128.893005,163.809891 
	C128.850967,164.158722 128.700653,164.274658 128.278702,164.476990 
	C127.957954,164.302490 127.908821,164.041580 127.910034,163.385651 
z"/>
<path fill="#25A549" opacity="1.000000" stroke="none" 
	d="
M96.064331,168.264618 
	C96.425537,168.131042 96.655479,168.321426 96.902496,168.804749 
	C96.987427,169.015762 96.496605,169.108322 96.252075,169.057648 
	C96.005325,168.840179 96.003120,168.673401 96.064331,168.264618 
z"/>
<path fill="#1FA345" opacity="1.000000" stroke="none" 
	d="
M77.950302,90.740341 
	C77.515907,90.874084 77.372360,90.641647 77.622421,90.176315 
	C77.748711,90.067726 77.973846,90.498466 77.950302,90.740341 
z"/>
<path fill="#27A549" opacity="1.000000" stroke="none" 
	d="
M128.102997,111.269897 
	C128.329819,111.219681 128.478790,111.387306 128.580368,111.579918 
	C128.601959,111.620857 128.450958,111.752815 128.220596,111.914070 
	C128.061722,111.985313 128.008209,111.496666 128.102997,111.269897 
z"/>
</svg>