<svg version="1.1" id="Layer_1" xmlns="http://www.w3.org/2000/svg" xmlns:xlink="http://www.w3.org/1999/xlink" x="0px" y="0px"
	 width="100%" viewBox="0 0 480 480" enable-background="new 0 0 480 480" xml:space="preserve">
<path fill="#000000" opacity="1.000000" stroke="none" 
	d="
M303.000000,481.000000 
	C202.000000,481.000000 101.500000,481.000000 1.000000,481.000000 
	C1.000000,321.000000 1.000000,161.000000 1.000000,1.000000 
	C161.000000,1.000000 321.000000,1.000000 481.000000,1.000000 
	C481.000000,161.000000 481.000000,321.000000 481.000000,481.000000 
	C421.833344,481.000000 362.666656,481.000000 303.000000,481.000000 
M272.078064,173.042908 
	C261.728729,173.026306 251.379379,173.009689 240.946869,172.059830 
	C240.655579,153.766678 240.213913,135.474380 240.107208,117.180161 
	C239.934280,87.525909 239.999191,57.870327 239.924088,28.215410 
	C239.901581,19.327354 234.670120,10.819479 227.396286,8.222541 
	C218.443497,5.026169 209.865921,5.370294 203.367035,13.238241 
	C193.043045,25.737093 183.079132,38.533360 172.960800,51.202126 
	C163.246872,63.364540 153.522858,75.518883 143.816940,87.687683 
	C134.214981,99.726135 124.622070,111.771812 115.039894,123.825996 
	C103.933762,137.797318 92.859604,151.794083 81.741722,165.756042 
	C72.248291,177.678009 62.685005,189.544403 53.203251,201.475601 
	C43.324764,213.906021 33.639172,226.492157 23.623043,238.809998 
	C14.695070,249.789627 10.412339,262.069000 13.753076,275.969543 
	C18.787626,296.917908 34.521046,308.839386 56.082985,308.853241 
	C117.393768,308.892639 178.704575,308.896057 240.039139,309.826080 
	C240.103043,312.552643 240.166946,315.279236 240.100449,318.934143 
	C240.456268,328.957428 240.812073,338.980682 241.047745,349.933929 
	C241.123642,362.293762 241.199554,374.653595 241.151505,387.940948 
	C241.523636,404.298615 241.895767,420.656281 242.132507,437.940552 
	C242.137833,443.564667 242.004318,449.193115 242.179230,454.811951 
	C242.484100,464.606720 249.449142,472.709381 259.898224,474.924194 
	C267.960663,476.225311 274.751709,473.736755 279.817139,467.452118 
	C289.259155,455.737518 298.442261,443.814270 308.308289,431.580811 
	C313.816437,424.364197 319.209961,417.056519 324.855682,409.949219 
	C338.131104,393.237091 351.527008,376.620636 365.430695,359.583618 
	C373.263885,349.765045 381.118347,339.963379 388.926270,330.124786 
	C412.690582,300.179840 436.439301,270.222504 460.189056,240.266037 
	C469.823334,228.113953 471.915619,214.371323 466.783966,200.133301 
	C462.271393,187.612991 453.693451,178.362701 439.649078,174.261795 
	C431.768951,173.897125 423.888794,173.532471 415.080170,173.023956 
	C408.057220,173.073242 401.034302,173.122543 393.082184,173.029129 
	C385.391785,173.077515 377.701385,173.125900 369.085571,173.041382 
	C364.392700,173.083191 359.699860,173.125015 354.080750,173.032791 
	C349.056396,173.079636 344.032013,173.126495 338.179932,173.047821 
	C336.787964,173.087906 335.395966,173.128006 333.074280,173.037720 
	C326.053619,173.082916 319.032959,173.128128 311.081238,173.045883 
	C304.391968,173.085983 297.702667,173.126083 290.083344,173.038742 
	C284.392059,173.081451 278.700775,173.124176 272.078064,173.042908 
z"/>
<path fill="#3ECF8E" opacity="1.000000" stroke="none" 
	d="
M240.015350,308.913635 
	C178.704575,308.896057 117.393768,308.892639 56.082985,308.853241 
	C34.521046,308.839386 18.787626,296.917908 13.753076,275.969543 
	C10.412339,262.069000 14.695070,249.789627 23.623043,238.809998 
	C33.639172,226.492157 43.324764,213.906021 53.203251,201.475601 
	C62.685005,189.544403 72.248291,177.678009 81.741722,165.756042 
	C92.859604,151.794083 103.933762,137.797318 115.039894,123.825996 
	C124.622070,111.771812 134.214981,99.726135 143.816940,87.687683 
	C153.522858,75.518883 163.246872,63.364540 172.960800,51.202126 
	C183.079132,38.533360 193.043045,25.737093 203.367035,13.238241 
	C209.865921,5.370294 218.443497,5.026169 227.396286,8.222541 
	C234.670120,10.819479 239.901581,19.327354 239.924088,28.215410 
	C239.999191,57.870327 239.934280,87.525909 240.107208,117.180161 
	C240.213913,135.474380 240.655579,153.766678 240.756683,172.871521 
	C240.524811,186.444077 240.483139,199.204971 240.369827,212.431320 
	C240.410736,222.905701 240.523270,232.914597 240.545868,243.355011 
	C240.635971,253.191406 240.816040,262.596313 240.965317,272.469025 
	C240.937576,280.357422 241.050461,287.780151 240.903152,295.197784 
	C240.812271,299.773804 240.324783,304.341949 240.015350,308.913635 
z"/>
<path fill="#35BC7F" opacity="1.000000" stroke="none" 
	d="
M394.011353,173.171814 
	C401.034302,173.122543 408.057220,173.073242 415.453796,173.430222 
	C414.386200,176.240982 413.014526,178.690689 411.488068,181.039780 
	C408.961945,184.927216 405.632477,188.452606 403.861053,192.645767 
	C386.314301,234.180710 369.052063,275.835724 351.638916,317.427277 
	C341.488068,341.672729 331.190918,365.856903 320.995880,390.083923 
	C315.896545,402.201752 310.852173,414.342926 305.847412,426.500092 
	C304.922791,428.746155 304.241425,431.142181 307.733124,431.977875 
	C298.442261,443.814270 289.259155,455.737518 279.817139,467.452118 
	C274.751709,473.736755 267.960663,476.225311 259.373718,474.464233 
	C259.073212,471.926422 258.835419,469.660706 259.592499,467.799713 
	C267.307526,448.835938 275.105988,429.905090 283.033386,411.028992 
	C296.890778,378.032806 310.867004,345.086517 324.771332,312.110016 
	C336.866058,283.425293 349.314331,254.880905 360.843658,225.970322 
	C366.488983,211.814331 374.193848,199.339218 384.154266,187.946457 
	C388.018066,183.526993 390.758942,178.125793 394.011353,173.171814 
z"/>
<path fill="#31B278" opacity="1.000000" stroke="none" 
	d="
M393.546753,173.100464 
	C390.758942,178.125793 388.018066,183.526993 384.154266,187.946457 
	C374.193848,199.339218 366.488983,211.814331 360.843658,225.970322 
	C349.314331,254.880905 336.866058,283.425293 324.771332,312.110016 
	C310.867004,345.086517 296.890778,378.032806 283.033386,411.028992 
	C275.105988,429.905090 267.307526,448.835938 259.592499,467.799713 
	C258.835419,469.660706 259.073212,471.926422 258.934021,474.337952 
	C249.449142,472.709381 242.484100,464.606720 242.179230,454.811951 
	C242.004318,449.193115 242.137833,443.564667 242.510345,437.357605 
	C245.220184,432.454712 247.926437,428.292480 249.823883,423.789398 
	C262.930481,392.684387 275.855286,361.502777 288.864929,330.356842 
	C299.121735,305.801270 309.204529,281.169678 319.783783,256.753510 
	C325.048584,244.602722 330.102051,232.101700 337.323853,221.122528 
	C346.509674,207.157547 357.918732,194.667175 368.048157,181.297729 
	C369.590179,179.262497 369.399994,175.914886 370.010986,173.174286 
	C377.701385,173.125900 385.391785,173.077515 393.546753,173.100464 
z"/>
<path fill="#39C486" opacity="1.000000" stroke="none" 
	d="
M308.020691,431.779358 
	C304.241425,431.142181 304.922791,428.746155 305.847412,426.500092 
	C310.852173,414.342926 315.896545,402.201752 320.995880,390.083923 
	C331.190918,365.856903 341.488068,341.672729 351.638916,317.427277 
	C369.052063,275.835724 386.314301,234.180710 403.861053,192.645767 
	C405.632477,188.452606 408.961945,184.927216 411.488068,181.039780 
	C413.014526,178.690689 414.386200,176.240982 415.918060,173.502136 
	C423.888794,173.532471 431.768951,173.897125 439.594604,174.818176 
	C437.847961,178.941910 436.032532,182.456635 434.483643,186.085129 
	C424.701111,209.002106 414.910614,231.916122 405.254486,254.886475 
	C396.439606,275.855591 387.815002,296.904602 379.060822,317.899353 
	C373.882263,330.318970 368.602417,342.696289 363.401123,355.106506 
	C362.581879,357.061249 361.172363,359.323608 364.874146,359.965485 
	C351.527008,376.620636 338.131104,393.237091 324.855682,409.949219 
	C319.209961,417.056519 313.816437,424.364197 308.020691,431.779358 
z"/>
<path fill="#3DCC8C" opacity="1.000000" stroke="none" 
	d="
M365.152405,359.774536 
	C361.172363,359.323608 362.581879,357.061249 363.401123,355.106506 
	C368.602417,342.696289 373.882263,330.318970 379.060822,317.899353 
	C387.815002,296.904602 396.439606,275.855591 405.254486,254.886475 
	C414.910614,231.916122 424.701111,209.002106 434.483643,186.085129 
	C436.032532,182.456635 437.847961,178.941910 439.821106,175.161377 
	C453.693451,178.362701 462.271393,187.612991 466.783966,200.133301 
	C471.915619,214.371323 469.823334,228.113953 460.189056,240.266037 
	C436.439301,270.222504 412.690582,300.179840 388.926270,330.124786 
	C381.118347,339.963379 373.263885,349.765045 365.152405,359.774536 
z"/>
<path fill="#2EAA73" opacity="1.000000" stroke="none" 
	d="
M369.548279,173.107834 
	C369.399994,175.914886 369.590179,179.262497 368.048157,181.297729 
	C357.918732,194.667175 346.509674,207.157547 337.323853,221.122528 
	C330.102051,232.101700 325.048584,244.602722 319.783783,256.753510 
	C309.204529,281.169678 299.121735,305.801270 288.864929,330.356842 
	C275.855286,361.502777 262.930481,392.684387 249.823883,423.789398 
	C247.926437,428.292480 245.220184,432.454712 242.578049,436.894287 
	C241.895767,420.656281 241.523636,404.298615 241.548035,387.410889 
	C243.103928,385.378632 244.653656,384.039215 245.358978,382.347717 
	C249.774292,371.758972 253.867905,361.035583 258.316895,350.461487 
	C269.280914,324.402710 280.382355,298.401764 291.422607,272.375061 
	C295.838470,261.964966 298.874939,250.658890 304.954926,241.336029 
	C314.912231,226.067734 326.955475,212.170425 337.898132,197.529877 
	C343.836456,189.584793 349.318909,181.298965 355.006989,173.166840 
	C359.699860,173.125015 364.392700,173.083191 369.548279,173.107834 
z"/>
<path fill="#2CA46E" opacity="1.000000" stroke="none" 
	d="
M354.543884,173.099823 
	C349.318909,181.298965 343.836456,189.584793 337.898132,197.529877 
	C326.955475,212.170425 314.912231,226.067734 304.954926,241.336029 
	C298.874939,250.658890 295.838470,261.964966 291.422607,272.375061 
	C280.382355,298.401764 269.280914,324.402710 258.316895,350.461487 
	C253.867905,361.035583 249.774292,371.758972 245.358978,382.347717 
	C244.653656,384.039215 243.103928,385.378632 241.610016,386.947113 
	C241.199554,374.653595 241.123642,362.293762 241.407104,349.314453 
	C242.449677,347.784302 243.361023,346.968018 243.782822,345.949097 
	C254.962723,318.941986 265.998505,291.874756 277.301666,264.919586 
	C279.854431,258.831848 282.884277,252.847992 286.462006,247.312378 
	C290.316498,241.348465 295.092926,235.982819 299.431641,230.328979 
	C311.857422,214.136810 324.246552,197.916489 336.699310,181.745148 
	C338.692932,179.156219 340.530029,176.650803 339.007660,173.173355 
	C344.032013,173.126495 349.056396,173.079636 354.543884,173.099823 
z"/>
<path fill="#2AA06B" opacity="1.000000" stroke="none" 
	d="
M338.593811,173.110596 
	C340.530029,176.650803 338.692932,179.156219 336.699310,181.745148 
	C324.246552,197.916489 311.857422,214.136810 299.431641,230.328979 
	C295.092926,235.982819 290.316498,241.348465 286.462006,247.312378 
	C282.884277,252.847992 279.854431,258.831848 277.301666,264.919586 
	C265.998505,291.874756 254.962723,318.941986 243.782822,345.949097 
	C243.361023,346.968018 242.449677,347.784302 241.467178,348.849487 
	C240.812073,338.980682 240.456268,328.957428 240.479599,318.345947 
	C241.595108,316.899017 242.609177,316.156250 243.023819,315.163208 
	C246.294312,307.330536 249.238632,299.355743 252.690445,291.606018 
	C258.095428,279.471252 263.006653,267.006195 269.653748,255.568329 
	C275.466705,245.565765 283.145294,236.594940 290.422424,227.506775 
	C304.934937,209.382538 316.993774,189.285767 334.003998,173.168091 
	C335.395966,173.128006 336.787964,173.087906 338.593811,173.110596 
z"/>
<path fill="#299C68" opacity="1.000000" stroke="none" 
	d="
M333.539124,173.102905 
	C316.993774,189.285767 304.934937,209.382538 290.422424,227.506775 
	C283.145294,236.594940 275.466705,245.565765 269.653748,255.568329 
	C263.006653,267.006195 258.095428,279.471252 252.690445,291.606018 
	C249.238632,299.355743 246.294312,307.330536 243.023819,315.163208 
	C242.609177,316.156250 241.595108,316.899017 240.544800,317.881775 
	C240.166946,315.279236 240.103043,312.552643 240.027252,309.369873 
	C240.324783,304.341949 240.812271,299.773804 240.903152,295.197784 
	C241.050461,287.780151 240.937576,280.357422 241.295746,272.373474 
	C242.927460,270.778839 244.476868,269.955750 245.425934,268.684479 
	C256.774323,253.483353 267.974182,238.171249 279.333801,222.978577 
	C289.598999,209.249619 300.152954,195.733475 310.217346,181.860687 
	C311.800079,179.679062 311.462158,176.104065 312.012299,173.173325 
	C319.032959,173.128128 326.053619,173.082916 333.539124,173.102905 
z"/>
<path fill="#269563" opacity="1.000000" stroke="none" 
	d="
M311.546753,173.109604 
	C311.462158,176.104065 311.800079,179.679062 310.217346,181.860687 
	C300.152954,195.733475 289.598999,209.249619 279.333801,222.978577 
	C267.974182,238.171249 256.774323,253.483353 245.425934,268.684479 
	C244.476868,269.955750 242.927460,270.778839 241.326538,271.905701 
	C240.816040,262.596313 240.635971,253.191406 240.839355,243.311798 
	C242.247406,242.062820 243.513077,241.471710 244.261032,240.487228 
	C259.199615,220.824768 274.158752,201.176376 288.851593,181.331055 
	C290.408295,179.228439 290.332062,175.916885 291.013397,173.166183 
	C297.702667,173.126083 304.391968,173.085983 311.546753,173.109604 
z"/>
<path fill="#228C5C" opacity="1.000000" stroke="none" 
	d="
M290.548370,173.102463 
	C290.332062,175.916885 290.408295,179.228439 288.851593,181.331055 
	C274.158752,201.176376 259.199615,220.824768 244.261032,240.487228 
	C243.513077,241.471710 242.247406,242.062820 240.929306,242.880310 
	C240.523270,232.914597 240.410736,222.905701 240.698700,212.391785 
	C244.984787,209.206177 249.628143,207.175476 252.599518,203.710846 
	C258.946228,196.310516 264.538269,188.246353 270.185089,180.273972 
	C271.617004,178.252335 272.093811,175.554184 273.009491,173.166901 
	C278.700775,173.124176 284.392059,173.081451 290.548370,173.102463 
z"/>
<path fill="#218558" opacity="1.000000" stroke="none" 
	d="
M272.543762,173.104889 
	C272.093811,175.554184 271.617004,178.252335 270.185089,180.273972 
	C264.538269,188.246353 258.946228,196.310516 252.599518,203.710846 
	C249.628143,207.175476 244.984787,209.206177 240.770340,211.926315 
	C240.483139,199.204971 240.524811,186.444077 240.798279,173.338135 
	C251.379379,173.009689 261.728729,173.026306 272.543762,173.104889 
z"/>
</svg>